<svg width="39" height="39" viewBox="0 0 39 39" fill="none" xmlns="http://www.w3.org/2000/svg">
<path d="M4.875 4.875H8.125L8.775 8.125L4.875 4.875ZM11.375 21.125H27.625L34.125 8.125H8.775L11.375 21.125ZM11.375 21.125L8.775 8.125L11.375 21.125ZM11.375 21.125L7.64905 24.851C6.62535 25.8747 7.35038 27.625 8.79809 27.625H27.625L11.375 21.125ZM27.625 27.625C25.83 27.625 24.375 29.08 24.375 30.875C24.375 32.67 25.83 34.125 27.625 34.125C29.42 34.125 30.875 32.67 30.875 30.875C30.875 29.08 29.42 27.625 27.625 27.625ZM14.625 30.875C14.625 32.67 13.1699 34.125 11.375 34.125C9.58007 34.125 8.125 32.67 8.125 30.875C8.125 29.08 9.58007 27.625 11.375 27.625C13.1699 27.625 14.625 29.08 14.625 30.875Z" stroke="#00A2FF" stroke-width="2" stroke-linecap="round" stroke-linejoin="round"/>
</svg>
