<svg width="39" height="39" viewBox="0 0 39 39" fill="none" xmlns="http://www.w3.org/2000/svg">
<path d="M14.625 19.5L17.875 22.75L24.375 16.25L14.625 19.5ZM33.5041 9.72455C33.1715 9.74141 32.8367 9.74994 32.5 9.74994C27.5056 9.74994 22.9499 7.87235 19.4998 4.78455C16.05 7.87224 11.4943 9.74975 6.5 9.74975C6.16325 9.74975 5.82852 9.74122 5.49596 9.72435C5.09064 11.2902 4.875 12.9324 4.875 14.625C4.875 23.7112 11.0895 31.3459 19.5 33.5107C27.9105 31.3459 34.125 23.7112 34.125 14.625C34.125 12.9325 33.9094 11.2903 33.5041 9.72455Z" stroke="#00A2FF" stroke-width="2" stroke-linecap="round" stroke-linejoin="round"/>
</svg>
